<?xml version="1.0" encoding="UTF-8" standalone="no"?>
<svg
   xmlns:dc="http://purl.org/dc/elements/1.1/"
   xmlns:cc="http://creativecommons.org/ns#"
   xmlns:rdf="http://www.w3.org/1999/02/22-rdf-syntax-ns#"
   xmlns:svg="http://www.w3.org/2000/svg"
   xmlns="http://www.w3.org/2000/svg"
   xmlns:xlink="http://www.w3.org/1999/xlink"
   xmlns:sodipodi="http://sodipodi.sourceforge.net/DTD/sodipodi-0.dtd"
   xmlns:inkscape="http://www.inkscape.org/namespaces/inkscape"
   width="86.003357"
   height="83.855629"
   id="svg2"
   version="1.1"
   inkscape:version="0.91 r13725"
   sodipodi:docname="neurofield_logo_dark_background.svg">
  <metadata
     id="metadata55">
    <rdf:RDF>
      <cc:Work
         rdf:about="">
        <dc:format>image/svg+xml</dc:format>
        <dc:type
           rdf:resource="http://purl.org/dc/dcmitype/StillImage" />
        <dc:title />
      </cc:Work>
    </rdf:RDF>
  </metadata>
  <sodipodi:namedview
     pagecolor="#ffffff"
     bordercolor="#666666"
     borderopacity="1"
     objecttolerance="10"
     gridtolerance="10"
     guidetolerance="10"
     inkscape:pageopacity="0"
     inkscape:pageshadow="2"
     inkscape:window-width="1920"
     inkscape:window-height="1101"
     id="namedview53"
     showgrid="false"
     inkscape:zoom="4.9166667"
     inkscape:cx="36.534972"
     inkscape:cy="41.641357"
     inkscape:window-x="0"
     inkscape:window-y="28"
     inkscape:window-maximized="1"
     inkscape:current-layer="svg2"
     fit-margin-top="0"
     fit-margin-left="0"
     fit-margin-right="0"
     fit-margin-bottom="0" />
  <defs
     id="defs4">
    <linearGradient
       id="linearGradient4370">
      <stop
         style="stop-color:#c22321;stop-opacity:1"
         offset="0"
         id="stop4372" />
      <stop
         id="stop4374"
         offset="0.49074605"
         style="stop-color:#1786ed;stop-opacity:0.49803922" />
      <stop
         style="stop-color:#4179cd;stop-opacity:1"
         offset="1"
         id="stop4376" />
    </linearGradient>
    <linearGradient
       id="lg1">
      <stop
         stop-color="#3778ae"
         offset="0"
         id="stop7" />
      <stop
         stop-color="#366c99"
         offset="1"
         id="stop9" />
    </linearGradient>
    <linearGradient
       id="lg2">
      <stop
         stop-color="#fff"
         offset="0"
         id="stop12" />
      <stop
         stop-color="#fff"
         stop-opacity="0.165"
         offset="1"
         id="stop14" />
    </linearGradient>
    <linearGradient
       id="lg3">
      <stop
         stop-color="#ffe253"
         offset="0"
         id="stop17" />
      <stop
         stop-color="#ffca1c"
         offset="1"
         id="stop19" />
    </linearGradient>
    <linearGradient
       id="lg4">
      <stop
         stop-color="#000"
         offset="0"
         id="stop22" />
      <stop
         stop-color="#000"
         stop-opacity="0"
         offset="1"
         id="stop24" />
    </linearGradient>
    <linearGradient
       x1="94.693001"
       y1="112.511"
       x2="94.693001"
       y2="64.053001"
       id="lg5"
       xlink:href="#lg2"
       gradientUnits="userSpaceOnUse"
       gradientTransform="matrix(0.353878,0,0,0.353878,-17.3795,-19.412)" />
    <linearGradient
       x1="59.728001"
       y1="102"
       x2="142.62"
       y2="102"
       id="lg6"
       xlink:href="#lg1"
       gradientUnits="userSpaceOnUse"
       gradientTransform="matrix(0.353878,0,0,0.353878,-17.3795,-19.412)" />
    <linearGradient
       x1="94.693001"
       y1="112.511"
       x2="94.693001"
       y2="64.053001"
       id="lg7"
       xlink:href="#lg2"
       gradientUnits="userSpaceOnUse"
       gradientTransform="matrix(0.353878,0,0,0.353878,-6.2969694,-7.9453701)" />
    <linearGradient
       x1="119.191"
       y1="89.129997"
       x2="116.965"
       y2="169.27901"
       id="lg8"
       xlink:href="#lg3"
       gradientUnits="userSpaceOnUse"
       gradientTransform="matrix(0.353878,0,0,0.353878,-16.3897,-17.997)" />
    <radialGradient
       cx="15.115"
       cy="63.965"
       r="12.289"
       fx="15.115"
       fy="63.965"
       id="rg1"
       xlink:href="#lg4"
       gradientUnits="userSpaceOnUse"
       gradientTransform="matrix(1.6,0,0,0.551754,-0.1839747,4.8357499)" />
    <clipPath
       clipPathUnits="userSpaceOnUse"
       id="clipPath218">
      <path
         inkscape:original-d="m -1150.0919,4051.1724 -539.2959,-220.8236 2.471,452.9858 c 184.3448,-79.7241 352.4801,-152.4381 536.8249,-232.1622 z"
         inkscape:connector-curvature="0"
         id="path220"
         d="m -1150.8569,4051.4584 c -13.5132,4.8119 -27.1098,8.1793 -40.3098,9.7428 -11.9367,1.4165 -23.5776,1.4203 -34.5017,0.031 0,0 0,0 -10e-5,0 -10.3498,-1.2994 -20.2302,-3.7821 -29.4541,-7.141 -9.1355,-3.3024 -17.8423,-7.5247 -26.19,-12.2767 -17.275,-9.6531 -33.1893,-22.3917 -49.7802,-35.9671 -1e-4,0 -1e-4,-1e-4 -1e-4,-1e-4 -17.374,-14.3882 -34.6942,-30.5405 -54.1126,-47.4073 -19.509,-17.1477 -40.8769,-35.159 -66.1708,-53.1694 -24.481,-17.6782 -53.6408,-34.7387 -89.5995,-49.5021 0,0 0,0 0,0 -35.4494,-14.5846 -77.4042,-24.1129 -126.6218,-25.7147 -25.0121,-0.4735 -50.574,1.553 -76.4347,6.315 -17.2122,3.2397 -34.0838,7.4401 -50.5074,12.5844 72.3018,132.5849 142.8726,266.0951 211.6726,400.5061 -2.4291,-2.0946 -4.8511,-4.2657 -7.2404,-6.4378 -4.1195,-3.7756 -7.0402,-8.1509 -8.9873,-12.8164 -4.2212,-9.9439 0.57,-19.1823 10.9926,-27.9947 11.5189,-8.912 29.1866,-14.391 50.7968,-18.3683 22.2421,-3.9467 47.7465,-5.5303 75.2978,-6.7132 27.0544,-1.1041 56.4496,-1.8367 86.8209,-4.197 28.8096,-2.0817 59.3768,-6.398 89.1291,-14.689 14.4062,-4.0601 28.5481,-9.2789 42.0165,-15.6784 13.5592,-6.4496 26.2081,-14.1745 37.6537,-22.9576 11.9701,-9.2081 22.4117,-19.4947 31.349,-30.4582 9.7596,-11.9887 17.6854,-24.6835 24.1815,-37.69 z"
         style="color:#000000;clip-rule:nonzero;display:inline;overflow:visible;visibility:visible;opacity:0.5;color-interpolation:sRGB;color-interpolation-filters:linearRGB;fill:url(#pattern222);fill-opacity:1;stroke:none;stroke-width:6;marker:none;enable-background:accumulate"
         sodipodi:nodetypes="cccc" />
    </clipPath>
    <filter
       inkscape:collect="always"
       id="filter2937"
       x="-0.11041527"
       width="1.2208304"
       y="-0.27077067"
       height="1.5415413"
       style="color-interpolation-filters:sRGB">
      <feGaussianBlur
         inkscape:collect="always"
         stdDeviation="25.4431"
         id="feGaussianBlur2939" />
    </filter>
    <filter
       inkscape:collect="always"
       id="filter2921"
       x="-0.11041527"
       width="1.2208304"
       y="-0.5123958"
       height="2.0247917"
       style="color-interpolation-filters:sRGB">
      <feGaussianBlur
         inkscape:collect="always"
         stdDeviation="25.4431"
         id="feGaussianBlur2923" />
    </filter>
    <filter
       inkscape:collect="always"
       style="color-interpolation-filters:sRGB"
       id="filter4517"
       x="-0.11025534"
       width="1.2205107"
       y="-0.16457815"
       height="1.3291563">
      <feGaussianBlur
         inkscape:collect="always"
         stdDeviation="31.263996"
         id="feGaussianBlur4519" />
    </filter>
    <linearGradient
       id="linearGradient4612">
      <stop
         id="stop4614"
         offset="0"
         style="stop-color:#df2a46;stop-opacity:1;" />
      <stop
         style="stop-color:#173fed;stop-opacity:0.49803922;"
         offset="0.5"
         id="stop4622" />
      <stop
         id="stop4616"
         offset="1"
         style="stop-color:#0500fc;stop-opacity:0;" />
    </linearGradient>
    <inkscape:perspective
       id="perspective3348"
       inkscape:persp3d-origin="0.5 : 0.33333333 : 1"
       inkscape:vp_z="1 : 0.5 : 1"
       inkscape:vp_y="0 : 1000 : 0"
       inkscape:vp_x="0 : 0.5 : 1"
       sodipodi:type="inkscape:persp3d" />
    <linearGradient
       gradientTransform="matrix(4.3167618,0,0,3.9086544,-810.20144,323.54435)"
       gradientUnits="userSpaceOnUse"
       y2="36.826805"
       x2="142.35904"
       y1="26.657312"
       x1="149.07089"
       id="linearGradient4624"
       xlink:href="#linearGradient4370"
       inkscape:collect="always" />
    <linearGradient
       gradientTransform="translate(87.129237,21.408898)"
       gradientUnits="userSpaceOnUse"
       y2="211.41141"
       x2="337.02698"
       y1="211.41141"
       x1="92.654892"
       id="linearGradient4658"
       xlink:href="#linearGradient4612"
       inkscape:collect="always" />
    <radialGradient
       gradientUnits="userSpaceOnUse"
       gradientTransform="matrix(1,0,0,0.76317344,87.129237,72.156147)"
       r="117.33387"
       fy="214.28023"
       fx="215.88409"
       cy="214.28023"
       cx="215.88409"
       id="radialGradient4666"
       xlink:href="#linearGradient4612"
       inkscape:collect="always" />
    <inkscape:perspective
       sodipodi:type="inkscape:persp3d"
       inkscape:vp_x="0 : 0.5 : 1"
       inkscape:vp_y="0 : 1000 : 0"
       inkscape:vp_z="1 : 0.5 : 1"
       inkscape:persp3d-origin="0.5 : 0.33333333 : 1"
       id="perspective4694" />
    <inkscape:perspective
       sodipodi:type="inkscape:persp3d"
       inkscape:vp_x="0 : 0.5 : 1"
       inkscape:vp_y="0 : 1000 : 0"
       inkscape:vp_z="1 : 0.5 : 1"
       inkscape:persp3d-origin="0.5 : 0.33333333 : 1"
       id="perspective4716" />
    <inkscape:perspective
       sodipodi:type="inkscape:persp3d"
       inkscape:vp_x="0 : 0.5 : 1"
       inkscape:vp_y="0 : 1000 : 0"
       inkscape:vp_z="1 : 0.5 : 1"
       inkscape:persp3d-origin="0.5 : 0.33333333 : 1"
       id="perspective4738" />
    <linearGradient
       y2="172.20395"
       x2="382.54651"
       y1="172.20395"
       x1="137.67151"
       gradientTransform="translate(3.1615915e-6,-1.0774685e-7)"
       gradientUnits="userSpaceOnUse"
       id="linearGradient4799"
       xlink:href="#linearGradient4612"
       inkscape:collect="always" />
    <inkscape:perspective
       sodipodi:type="inkscape:persp3d"
       inkscape:vp_x="0 : 0.5 : 1"
       inkscape:vp_y="0 : 1000 : 0"
       inkscape:vp_z="1 : 0.5 : 1"
       inkscape:persp3d-origin="0.5 : 0.33333333 : 1"
       id="perspective5085" />
    <inkscape:perspective
       sodipodi:type="inkscape:persp3d"
       inkscape:vp_x="0 : 0.5 : 1"
       inkscape:vp_y="0 : 1000 : 0"
       inkscape:vp_z="1 : 0.5 : 1"
       inkscape:persp3d-origin="0.5 : 0.33333333 : 1"
       id="perspective5119" />
    <inkscape:perspective
       sodipodi:type="inkscape:persp3d"
       inkscape:vp_x="0 : 0.5 : 1"
       inkscape:vp_y="0 : 1000 : 0"
       inkscape:vp_z="1 : 0.5 : 1"
       inkscape:persp3d-origin="0.5 : 0.33333333 : 1"
       id="perspective3288" />
  </defs>
  <ellipse
     style="opacity:1;fill:#333333;fill-opacity:1;fill-rule:nonzero;stroke:none;stroke-width:1.48800004;stroke-linejoin:miter;stroke-miterlimit:4;stroke-dasharray:none;stroke-dashoffset:0;stroke-opacity:1"
     id="path3451"
     cx="45.238464"
     cy="39.397514"
     rx="35.810764"
     ry="35.091671" />
  <g
     transform="matrix(0.16305391,0,0,0.21283785,260.70733,-814.37751)"
     inkscape:groupmode="maskhelper"
     id="g209"
     clip-path="url(#clipPath218)"
     style="opacity:1;filter:url(#filter4517)">
    <path
       inkscape:original-d="m -1700.8505,3801.5945 -2.2758,128.7503 c 184.3448,40.2759 368.6896,80.5517 553.0344,120.8276 z"
       sodipodi:nodetypes="cccc"
       inkscape:connector-curvature="0"
       id="path136"
       d="m -1831.4007,3836.8443 c 20.7981,37.5887 42.0282,74.9256 63.6807,112.0045 18.637,-8.542 38.2736,-15.3378 58.604,-20.2353 19.0646,-4.534 38.163,-7.0925 57.0575,-7.7898 37.1032,-0.9992 70.6033,4.2684 100.3926,13.5313 0,0 0,0 0,0 30.4005,9.404 56.9456,21.3446 80.7975,34.1064 24.5889,13.0319 46.8989,26.5964 68.2412,39.5857 21.1551,12.79 41.2224,25.1114 61.5321,35.7014 0,0 0,0 0,0 19.3869,10.022 38.6322,18.8849 58.7062,24.4763 9.7315,2.7504 19.6712,4.8292 29.78,5.9354 10.2184,1.1286 20.7255,1.2936 31.3141,0.3134 0,0 10e-5,0 10e-5,0 11.1734,-1.0236 22.5396,-3.3623 33.7866,-6.9328 12.432,-3.9437 24.7384,-9.4289 36.6512,-16.0824 -13.8793,4.3906 -27.771,7.2737 -41.1466,8.2927 -12.0945,0.9237 -23.7983,0.3935 -34.6654,-1.5481 -10.2953,-1.8209 -20.0323,-4.8338 -29.0287,-8.7028 -8.9128,-3.8048 -17.3376,-8.5174 -25.3688,-13.7272 -16.6347,-10.5822 -31.7871,-24.2073 -47.7385,-38.5956 -16.7025,-15.257 -33.3944,-32.2857 -52.4154,-50.085 -19.0898,-18.099 -40.2421,-37.1274 -65.6973,-56.2766 -24.6249,-18.8028 -54.3827,-37.0344 -91.6129,-53.0237 0,0 0,0 0,0 -36.7442,-15.8019 -80.6329,-26.3048 -132.6216,-28.5016 -26.4114,-0.7413 -53.4518,1.1635 -80.867,5.9776 -27.3941,4.9264 -53.9841,12.1323 -79.3816,21.5762 z"
       style="color:#000000;display:inline;overflow:visible;visibility:visible;fill:#ff0000;fill-opacity:1;fill-rule:nonzero;stroke:none;stroke-width:6;marker:none;filter:url(#filter2937);enable-background:accumulate"
       transform="matrix(0.64850448,0,0,0.85561841,-194.78882,658.48384)" />
    <path
       inkscape:original-d="m -1617.7904,4035.8973 c 17.4983,30.2035 71.0951,40.963 89.2782,70.7468 3.3361,-5.1312 -105.1734,35.8146 -101.2648,31.5746 3.622,-4.0162 40.5356,-81.0661 45.5297,-84.4235 9.5759,-6.9096 -8.6372,61.9592 8.2905,59.1299 l 10e-5,0 c 17.7707,-2.7742 38.3745,-2.4672 60.7969,-0.8768 22.9872,1.7195 47.4379,5.1798 72.9456,8.7198 25.1017,3.5268 51.4109,7.1432 78.3914,9.1025 l 0,0 c 25.7401,1.9477 52.554,2.0039 78.9881,-1.6339 12.876,-1.7979 25.6172,-4.5896 37.9377,-8.4738 12.478,-3.939 24.4095,-9.0407 35.5404,-15.2006 l 10e-5,0 c 11.74,-6.5072 22.482,-14.1511 32.1615,-22.6164 10.687,-9.352 20.0617,-19.6494 28.3381,-30.4875 -9.8617,9.0138 -20.5145,17.2133 -31.9623,24.2075 -10.3628,6.3314 -21.377,11.6624 -32.87,15.779 -10.8945,3.9018 -22.205,6.7075 -33.698,8.4371 l 0,0 c -11.3562,1.7087 -22.8761,2.377 -34.3812,2.1921 -23.6614,-0.3857 -47.1757,-4.2813 -70.1461,-9.7491 l 0,0 c -24.0723,-5.7219 -47.6603,-13.1333 -71.0415,-20.6984 -23.6917,-7.6595 -47.2092,-15.5249 -70.8947,-22.176 -23.0455,-6.4607 -46.2395,-11.8395 -69.5163,-14.3745 l 0,0 c -22.5348,-2.4424 -45.199,-2.2493 -66.7756,2.0837 -11.0541,2.1977 100.0139,32.919 89.6596,37.161 -10.3795,4.2451 -65.8539,-44.5223 -75.3074,-38.4235 z"
       sodipodi:nodetypes="ccccccccccccccccsccccccccccccc"
       inkscape:connector-curvature="0"
       id="path144"
       d="m -1694.17,4062.4622 c 17.4983,30.2035 35.3429,60.1997 53.526,89.9835 3.3361,-5.1312 6.9584,-9.987 10.867,-14.227 3.622,-4.0162 8.0336,-7.7835 13.0277,-11.1409 9.5759,-6.9096 23.8648,-11.3234 40.7925,-14.1527 0,0 10e-5,0 10e-5,0 17.7707,-2.7742 38.3745,-2.4672 60.7969,-0.8768 22.9872,1.7195 47.4379,5.1798 72.9456,8.7198 25.1017,3.5268 51.4109,7.1432 78.3914,9.1025 0,0 0,0 0,0 25.7401,1.9477 52.554,2.0039 78.9881,-1.6339 12.876,-1.7979 25.6172,-4.5896 37.9377,-8.4738 12.478,-3.939 24.4095,-9.0407 35.5404,-15.2006 0,0 10e-5,0 10e-5,0 11.74,-6.5072 22.482,-14.1511 32.1615,-22.6164 10.687,-9.352 20.0617,-19.6494 28.3381,-30.4875 -9.8617,9.0138 -20.5145,17.2133 -31.9623,24.2075 -10.3628,6.3314 -21.377,11.6624 -32.87,15.779 -10.8945,3.9018 -22.205,6.7075 -33.698,8.4371 0,0 0,0 0,0 -11.3562,1.7087 -22.8761,2.377 -34.3812,2.1921 -23.6614,-0.3857 -47.1757,-4.2813 -70.1461,-9.7491 0,0 0,0 0,0 -24.0723,-5.7219 -47.6603,-13.1333 -71.0415,-20.6984 -23.6917,-7.6595 -47.2092,-15.5249 -70.8947,-22.176 -23.0455,-6.4607 -46.2395,-11.8395 -69.5163,-14.3745 0,0 0,0 0,0 -22.5348,-2.4424 -45.199,-2.2493 -66.7756,2.0837 -11.0541,2.1977 -21.8685,5.438 -32.2228,9.68 -10.3795,4.2451 -20.3511,9.5236 -29.8046,15.6224 z"
       style="color:#000000;display:inline;overflow:visible;visibility:visible;fill:#4169e1;fill-opacity:1;fill-rule:nonzero;stroke:none;stroke-width:5.99882377;marker:none;filter:url(#filter2921);enable-background:accumulate;stroke-miterlimit:4;stroke-dasharray:none"
       transform="matrix(0.7675704,0,0,1.0432046,-237.47461,-108.66826)" />
  </g>
  <ellipse
     style="opacity:1;fill:none;fill-opacity:1;fill-rule:nonzero;stroke:none;stroke-width:1.48800004;stroke-linejoin:miter;stroke-miterlimit:4;stroke-dasharray:none;stroke-dashoffset:0;stroke-opacity:1"
     id="path4190"
     cx="39.001678"
     cy="57.123505"
     rx="4.4583683"
     ry="0.35954583" />
  <g
     id="g4362"
     transform="matrix(0.23165513,0,0,0.25584252,62.413018,-75.408594)">
    <path
       sodipodi:nodetypes="sssssssssssssssssssssssssssssssssssssssssssssssssssssssssssssssssssssssssssssssssssssssssssssssssssssssssssssssssssssssssssssssssssssssssssssssssssssssssssssssssssssss"
       id="path3352"
       d="m -76.129903,518.47569 c 0.458336,-1.30274 1.120862,-3.18428 2.620274,-3.34594 1.78717,-0.19269 2.71338,2.14168 4.07007,3.21252 7.891336,6.22866 19.385639,6.23135 25.637324,0.006 3.022059,-3.00933 3.797067,-3.17045 5.478872,-2.13941 2.575856,1.57914 35.2571627,-2.57775 37.76440094,-3.25005 37.48915006,-10.05253 42.96218706,-12.273 51.02673006,-20.38647 4.392625,-4.41928 4.833861,-5.31251 8.450296,-17.10643 3.669522,-11.96709 3.782391,-12.9597 2.946539,-25.91524 -1.060432,-16.43669 -1.910073,-19.98175 -6.199032,-25.86482 -1.840374,-2.52442 -4.547549,-7.77959 -6.015938,-11.67817 -1.975624,-5.2453 -4.137164,-8.47458 -8.313307,-12.41988 -3.103926,-2.93235 -7.00943,-7.46851 -8.678903,-10.08033 -1.669472,-2.61184 -5.105835,-6.61723 -7.636374,-8.90089 -7.047206,-6.35932 -28.4679471,-19.79797 -35.800665,-22.4597 -3.600589,-1.30696 -11.754965,-5.04648 -18.120839,-8.30997 -10.060894,-5.15776 -12.278573,-5.95925 -16.960091,-6.12955 -2.962155,-0.1078 -7.044312,-0.84335 -9.071435,-1.63463 -2.027123,-0.7913 -6.466268,-1.70992 -9.864756,-2.04137 -3.398477,-0.33145 -8.716055,-1.09307 -11.816829,-1.69247 -9.726977,-1.8803 -14.804967,-1.84979 -20.171097,0.12113 -2.85812,1.04978 -6.659007,1.71717 -8.446427,1.48311 -9.554,-1.25112 -21.3507,6.01699 -31.38525,10.45372 -6.20689,2.74435 -11.6747,6.96559 -17.64179,9.91761 -5.96707,2.95204 -12.04784,6.78993 -13.51282,8.52864 -1.46496,1.73872 -4.95905,5.26034 -7.76463,7.82586 -9.1291,8.34792 -21.60987,22.87894 -24.97055,29.07253 -4.33054,7.98098 -10.04498,20.39834 -11.60901,31.3537 -1.23088,8.62178 -0.52236,19.93829 1.89707,26.03195 2.05561,5.17732 9.76256,16.58803 11.71983,17.35205 0.91917,0.35881 1.34863,3.11694 1.11507,7.16126 -0.20894,3.61775 0.13135,8.47675 0.7562,10.79779 0.62484,2.32104 1.27812,5.37236 1.45173,6.78071 0.18489,1.49987 2.67114,4.62842 6.0017,7.55221 3.12733,2.74535 5.57131,5.30321 5.43107,5.68412 -0.14033,0.38085 1.1321,1.35147 2.8274,2.15682 1.69531,0.80535 5.50408,3.21649 8.46394,5.35808 2.95987,2.14158 6.74175,4.23258 8.40417,4.64667 1.66242,0.41408 5.89947,1.51951 9.41564,2.45651 2.13103,0.56788 4.20102,2.02945 6.39308,1.70364 2.77084,-0.41183 7.18343,-1.85044 6.8967,-4.37961 -0.11125,-0.98135 -1.03284,-0.40319 -3.00147,-1.17164 -1.65083,-0.6444 -4.48701,-1.16599 -6.30264,-1.15907 -8.6842,0.0331 -29.83388,-12.46176 -37.28751,-22.02871 -3.35994,-4.31259 -4.79882,-11.99605 -3.84877,-20.55208 0.6424,-5.78537 0.43617,-6.4687 -2.58659,-8.57071 -4.4168,-3.07141 -11.22277,-15.33038 -12.55676,-22.61734 -1.85187,-10.11586 -0.26491,-18.72051 6.49007,-35.18976 5.77826,-14.08795 6.1691,-14.73702 14.25681,-23.67684 7.39225,-8.1711 11.80676,-12.52293 16.69203,-16.45508 0.82848,-0.66685 3.15641,-3.20904 5.17317,-5.64933 2.61264,-3.16129 6.3796,-5.65931 13.1025,-8.68881 5.18962,-2.33856 14.15135,-7.36125 19.91499,-11.16154 8.5935,-5.66621 11.76092,-7.07582 17.60103,-7.83301 3.91691,-0.50787 8.11552,-0.53543 9.33024,-0.0612 1.21472,0.47417 4.438767,-0.12305 7.164567,-1.32716 5.33277,-2.35574 13.560977,-2.58552 18.836926,-0.52603 1.799786,0.70255 5.231213,1.21328 7.625387,1.13495 2.394174,-0.0783 8.303863,0.85387 13.132657,2.07154 4.828783,1.21767 10.344277,2.25753 12.256648,2.3108 2.466137,0.0687 9.907955,3.83543 14.775821,5.93148 6.075422,2.61602 14.313815,6.93858 17.998843,8.28787 7.2667519,2.66075 23.766326,12.72163 32.728246,19.95659 3.08136,2.48758 7.007634,6.96827 8.72505,9.95708 1.717415,2.98882 3.674621,5.64969 4.349333,5.91307 3.06488,1.19639 11.070832,11.85946 12.157003,16.1918 0.648743,2.58762 2.6193,6.58904 4.379011,8.89204 4.787056,6.26499 5.695912,9.41743 6.839819,23.72475 1.016079,12.70833 0.938545,13.41674 -2.787543,25.47176 -3.547251,11.47646 -4.138827,12.69581 -7.943871,16.37384 -2.358421,2.2797 -7.699626,5.37406 -12.528015,7.25794 -10.160368,3.96427 -45.365263,13.01025 -46.634771,12.89661 -9.428079,-0.84398 8.2125763,3.34325 -18.168826,3.59191 -4.799787,0.0452 -9.839426,-1.2217 -14.39936,0.13572 -1.202898,0.35808 -2.053956,1.3414 -3.080934,2.0121 -1.980472,1.29341 -5.075287,1.8086 -8.664451,1.44236 -5.245331,-0.53526 -5.011784,-2.00361 -12.159433,-6.35199 -52.811847,-32.12889 -6.36757,43.33303 -6.36757,7.54483 0,-1.5e-4 -4.9e-5,-3e-4 0,-4.4e-4 z m -21.03311,-8.81253 c -5.457737,-4.31931 -1.67573,-5.06195 -7.953627,2.37173 -10.10421,11.96443 -25.49645,16.15724 -24.39667,6.64561 0.18072,-1.5632 2.60539,-6.47733 5.38813,-10.9203 2.78274,-4.44298 5.05732,-8.88305 5.0551,-9.86683 -0.002,-0.98377 -1.29854,-2.75306 -2.98888,-3.79324 -9.15163,-5.6316 -9.06186,10.31138 -11.94438,15.47777 -1.6116,1.73927 -5.93948,4.10505 -9.77258,5.34209 -8.88003,2.86581 -10.73877,1.28072 -8.18884,-6.98316 1.6074,-5.20925 1.54177,-5.718 -0.90558,-7.02009 -2.15551,-1.14682 -3.37838,-0.83469 -6.67967,1.70493 -4.51773,3.47545 -10.13095,4.16382 -13.61424,1.66959 -2.39105,-1.71213 -11.06336,-17.63813 -6.04778,-18.32551 38.03795,-5.21303 8.58433,-34.18285 0.0515,-24.64971 -1.16745,1.68537 -3.54456,3.38437 -5.28248,3.77558 -2.93416,0.66045 -3.31098,0.49881 -5.27517,-2.26283 -2.85693,-4.01683 -5.64122,-6.12464 -4.23038,-14.78277 5.57144,-34.19129 -2.79935,-10.46171 17.78613,-44.43138 6.18314,-8.05202 7.48673,-8.73644 11.62073,-10.003 9.98882,-3.06035 9.72647,-10.36699 18.17321,-14.92916 19.78414,-10.68561 9.06515,-5.93067 28.1353,-17.40248 3.99084,-1.42698 6.15587,-1.21345 10.84973,1.07007 1.42964,0.69551 4.27471,-0.0125 8.386977,-2.0872 3.42289,-1.72686 8.15907,-3.36822 10.52488,-3.64743 4.583716,-0.541 36.95176,5.42833 42.47393,7.83307 1.812141,0.78911 5.92211,4.1843 9.133281,7.54483 6.627157,6.93542 8.561491,7.61428 20.899463,7.3349 5.9907028,-0.13566 8.9008766,-0.16392 12.3594879,2.4264 46.5173681,34.83914 46.9976741,61.37834 46.4906041,90.0833 -0.474088,1.77194 -1.634597,3.34978 -3.288825,4.77888 -1.654229,1.42909 -3.802177,2.70942 -6.251188,3.88638 -2.448999,1.17696 -5.199041,2.25054 -8.05743,3.26608 -2.858391,1.01555 -5.785998,2.07739 -8.707551,2.91793 -33.506896,9.64002 -37.487048,1.46359 -93.429681,4.0271 -1.547852,0.0709 6.469884,8.02275 8.388521,8.29284 17.199443,2.42117 97.881301,-2.74167 110.138457,-12.96163 3.254988,-2.9935 3.991946,-4.52076 6.995258,-14.49696 3.193454,-10.60781 3.299331,-11.79596 2.173688,-24.39269 -0.940581,-10.52554 -1.748878,-13.95494 -3.9406,-16.71867 -1.516517,-1.91231 -4.302025,-7.17984 -6.190014,-11.70562 -2.52162,-6.04479 -4.861996,-9.5546 -8.81808,-13.22439 -2.961969,-2.74762 -6.611191,-7.10872 -8.109378,-9.69135 -2.959878,-5.10231 -7.732336,-9.08397 -22.0583535,-18.40336 -11.2962116,-7.34843 -15.7957425,-9.2068 -19.0974795,-7.88754 -2.346352,0.93751 -2.609254,0.8148 -3.925191,-1.83229 -1.384398,-2.78479 -6.707043,-5.67415 -20.361927,-11.05334 -6.664911,-2.62557 -26.686266,-6.71032 -30.632818,-6.24969 -1.857052,0.21675 -5.128948,-0.27812 -7.270877,-1.09974 -5.268746,-2.02103 -13.089217,-1.35883 -17.396787,1.47304 -2.73499,1.79802 -4.325457,2.02419 -6.971217,0.99141 -7.16669,-2.79754 -14.42827,-0.40781 -30.03047,9.88284 -4.71582,3.11037 -11.84169,7.08044 -15.83527,8.82234 -8.02843,3.50184 -11.79646,6.41354 -13.20464,10.20374 -0.51296,1.38064 -2.14191,2.99344 -3.6199,3.58398 -3.65116,1.45889 -19.66786,18.78475 -23.83057,25.77842 -1.85404,3.11494 -5.36915,11.63523 -7.81135,18.93395 -4.13385,12.35434 -4.38334,13.80274 -3.61416,20.98187 1.22599,11.44282 7.148,21.20771 14.63382,24.12982 0,0 3.54307,0.37503 4.15798,1.62308 0.87978,1.78564 -1.37707,3.70643 -2.0656,5.55965 -2.62312,7.06025 -1.85171,17.07457 1.67324,21.72114 3.68923,4.86317 17.30454,14.69094 23.24744,16.78043 7.7441,2.72277 13.16999,3.82688 18.7744,3.82193 2.77175,-0.002 5.35895,0.24516 5.30352,0.59861 -2.50218,15.95504 51.503946,-4.60525 38.984857,-14.51297 z m -67.084147,4.02166 c -1.19749,-0.25529 -0.0181,-2.26891 0.37473,-3.32451 0.25315,-0.68015 0.49638,-1.58817 1.2397,-1.83747 3.06661,-1.02851 7.39214,0.0201 7.42394,1.89892 0.019,1.12694 -0.25363,4.61584 -0.47269,5.19048 -0.21933,0.57455 -2.32728,-0.30483 -4.75686,-0.45066 -0.71805,-0.0431 -3.32603,-2.63544 -3.80867,-1.47712 0,0 -1e-5,3.9e-4 -1.5e-4,3.6e-4 z m 76.115667,-0.59615 c 7.804389,9.21004 -9.818708,-11.58716 0,0 z m -88.499487,-46.78599 c 7.23459,-6.81576 4.13813,17.54081 -0.87922,11.79816 0,0 -5.02269,-3.28573 -4.99261,-5.71433 0.0214,-1.72787 2.38117,-2.7032 3.65189,-3.99241 0.71105,-0.7214 2.21994,-2.09142 2.21994,-2.09142 z m 43.01993,-101.83375 c 1.59193,-1.4183 3.6025,1.12497 3.86988,2.55234 0.28966,1.54629 -1.10936,2.17691 -4.01719,1.81077 -0.17549,-0.0221 -0.95278,-3.38301 0.14731,-4.36311 z m 102.018828,5.13691 c -2.377014,-2.72436 -2.405882,-3.00145 -0.307792,-2.95481 3.295676,0.0733 7.298281,3.97407 6.442148,6.27839 -0.536123,1.443 -3.265909,-0.036 -6.134356,-3.32358 z"
       style="fill:url(#linearGradient4624);fill-opacity:1;fill-rule:nonzero;stroke-width:0.35433072;stroke-miterlimit:4;stroke-dasharray:none"
       inkscape:connector-curvature="0" />
    <g
       id="g5071"
       transform="matrix(1.7466566,0.07320459,-0.12622626,1.0259362,-194.51187,-104.62187)" />
  </g>
  <text
     xml:space="preserve"
     style="font-style:normal;font-weight:normal;font-size:40px;line-height:125%;font-family:'Bitstream Vera Sans';letter-spacing:0px;word-spacing:0px;fill:#cacaca;fill-opacity:1;stroke:none;stroke-width:1px;stroke-linecap:butt;stroke-linejoin:miter;stroke-opacity:1"
     x="31.762711"
     y="39.482746"
     id="text4436"
     sodipodi:linespacing="125%"><tspan
       sodipodi:role="line"
       id="tspan4438"
       x="31.762711"
       y="39.482746"
       style="font-style:normal;font-variant:normal;font-weight:normal;font-stretch:normal;font-size:7.5px;line-height:125%;font-family:Clean;-inkscape-font-specification:'Clean, Normal';text-align:start;writing-mode:lr-tb;text-anchor:start;fill:#cacaca;fill-opacity:1">NFTsim</tspan></text>
</svg>
